<svg xmlns="http://www.w3.org/2000/svg" width="500" height="500" version="1.0" viewBox="0 0 375 375"><defs><clipPath id="a"><path d="M87 158h60.297v95H87Zm0 0"/></clipPath><clipPath id="b"><path d="M85.047 156H113v19H85.047Zm0 0"/></clipPath></defs><path fill="#fff" d="M-37.5-37.5h450v450h-450z"/><path fill="#072b56" d="M-37.5-37.5h450v450h-450z"/><path fill="#fff" d="M168.037 164.135v-17.953c0-.25.125-.375.375-.375h5.61c1.1 0 1.937.293 2.5.875.57.574.859 1.414.859 2.515v11.953c0 1.086-.29 1.918-.86 2.5-.562.575-1.398.86-2.5.86h-5.61c-.25 0-.374-.125-.374-.375Zm3.172-2.703h2.156c.625 0 .937-.313.937-.938v-10.64c0-.633-.312-.954-.937-.954h-2.156Zm26.468 3.078h-2.485c-.199 0-.324-.11-.375-.328l-.656-3.407h-4.156l-.625 3.407c-.055.218-.18.328-.375.328h-2.5c-.281 0-.387-.13-.313-.39l3.891-17.985c.04-.219.172-.328.39-.328h3.25c.22 0 .348.109.391.328l3.89 17.984c.04.262-.07.39-.327.39Zm-4.094-6.453-1.5-8.157-1.484 8.157Zm13.119-12.25h8.594c.25 0 .375.125.375.375v2.343c0 .25-.125.375-.375.375h-2.703v15.235c0 .25-.125.375-.375.375h-2.438c-.25 0-.375-.125-.375-.375V148.9h-2.703c-.25 0-.375-.125-.375-.375v-2.343c0-.25.125-.375.375-.375ZM235.5 164.51h-2.484c-.199 0-.324-.11-.375-.328l-.656-3.407h-4.156l-.625 3.407c-.055.218-.18.328-.375.328h-2.5c-.281 0-.387-.13-.313-.39l3.891-17.985c.04-.219.172-.328.39-.328h3.25c.22 0 .348.109.391.328l3.89 17.984c.04.262-.07.39-.327.39Zm-4.093-6.453-1.5-8.157-1.484 8.157Zm-60.011 20.106h2.625c1.102 0 1.938.29 2.5.86.57.562.86 1.402.86 2.515v2.469c0 .25-.125.375-.375.375h-2.422c-.25 0-.375-.125-.375-.375v-1.813c0-.625-.313-.937-.938-.937h-1.125c-.625 0-.937.312-.937.937v3.22l5.562 1.827c.406.168.61.453.61.86v5.406c0 1.086-.29 1.918-.86 2.5-.562.574-1.398.86-2.5.86h-2.625c-1.086 0-1.918-.286-2.5-.86-.574-.582-.86-1.414-.86-2.5v-2.469c0-.238.126-.36.376-.36h2.422c.25 0 .375.122.375.36v1.813c0 .625.312.937.937.937h1.125c.625 0 .938-.312.938-.937v-3.11l-5.547-1.828c-.418-.133-.625-.422-.625-.86v-5.515c0-1.113.285-1.953.86-2.515.581-.57 1.413-.86 2.5-.86Zm24.39 3.375v2.516c0 .25-.125.375-.375.375h-2.344c-.25 0-.375-.125-.375-.375v-1.86c0-.625-.312-.937-.937-.937h-1.203c-.625 0-.938.312-.938.937v10.657c0 .625.313.937.938.937h1.203c.625 0 .937-.312.937-.937v-1.875c0-.25.125-.375.375-.375h2.344c.25 0 .375.125.375.375v2.531c0 1.086-.293 1.918-.875 2.5-.574.574-1.406.86-2.5.86h-2.61c-1.093 0-1.933-.286-2.515-.86-.586-.582-.875-1.414-.875-2.5v-11.969c0-1.113.29-1.953.875-2.515.582-.57 1.422-.86 2.516-.86h2.61c1.093 0 1.925.29 2.5.86.581.562.874 1.402.874 2.515Zm9.398-3.375h2.422c.25 0 .375.125.375.375v17.953c0 .25-.125.375-.375.375h-2.422c-.25 0-.375-.125-.375-.375v-17.953c0-.25.125-.375.375-.375Zm21.156.375v2.344c0 .262-.125.39-.375.39h-5.844v4.672h4.47c.237 0 .358.137.358.407v2.312c0 .262-.12.39-.359.39h-4.469v4.735h5.844c.25 0 .375.121.375.36v2.343c0 .25-.125.375-.375.375h-8.61c-.23 0-.343-.125-.343-.375v-17.953c0-.25.113-.375.344-.375h8.61c.25 0 .374.125.374.375Zm16.195-.375h2.437c.25 0 .375.125.375.375v17.953c0 .25-.125.375-.375.375h-2.312c-.219 0-.36-.097-.422-.297l-3.578-9.984h-.125v9.906c0 .25-.125.375-.375.375h-2.422c-.25 0-.375-.125-.375-.375v-17.953c0-.25.125-.375.375-.375h2.312c.22 0 .36.106.422.313l3.547 9.922h.14v-9.86c0-.25.126-.375.376-.375Zm21.208 3.375v2.516c0 .25-.125.375-.375.375h-2.343c-.25 0-.375-.125-.375-.375v-1.86c0-.625-.313-.937-.938-.937h-1.203c-.625 0-.937.312-.937.937v10.657c0 .625.312.937.937.937h1.203c.625 0 .938-.312.938-.937v-1.875c0-.25.125-.375.375-.375h2.343c.25 0 .375.125.375.375v2.531c0 1.086-.293 1.918-.875 2.5-.574.574-1.406.86-2.5.86h-2.609c-1.094 0-1.934-.286-2.516-.86-.586-.582-.875-1.414-.875-2.5v-11.969c0-1.113.29-1.953.875-2.515.582-.57 1.422-.86 2.516-.86h2.61c1.093 0 1.925.29 2.5.86.581.562.874 1.402.874 2.515Zm18.351-3v2.344c0 .262-.125.39-.375.39h-5.843v4.672h4.468c.239 0 .36.137.36.407v2.312c0 .262-.121.39-.36.39h-4.468v4.735h5.843c.25 0 .375.121.375.36v2.343c0 .25-.125.375-.375.375h-8.61c-.23 0-.343-.125-.343-.375v-17.953c0-.25.113-.375.344-.375h8.61c.25 0 .374.125.374.375Zm-104.682 35.357v2.515c0 .25-.125.375-.375.375h-2.344c-.25 0-.375-.125-.375-.375v-1.859c0-.625-.312-.937-.937-.937h-1.204c-.625 0-.937.312-.937.937v10.656c0 .625.312.938.937.938h1.204c.625 0 .937-.313.937-.938v-1.875c0-.25.125-.375.375-.375h2.344c.25 0 .375.125.375.375v2.532c0 1.086-.293 1.918-.875 2.5-.574.574-1.406.859-2.5.859h-2.61c-1.093 0-1.933-.285-2.515-.86-.586-.581-.875-1.413-.875-2.5v-11.968c0-1.113.289-1.953.875-2.516.582-.57 1.422-.86 2.515-.86h2.61c1.094 0 1.926.29 2.5.86.582.563.875 1.403.875 2.516Zm12.194 12.25v-15.25c0-.25-.125-.375-.375-.375h-2.421c-.25 0-.375.125-.375.375v17.953c0 .25.125.375.375.375h8.359c.25 0 .375-.125.375-.375v-2.344c0-.238-.125-.36-.375-.36Zm21.704-15.625h2.14a.45.45 0 0 1 .328.14.45.45 0 0 1 .14.329v14.875c0 1.086-.288 1.918-.858 2.5-.563.574-1.399.859-2.5.859h-2.625c-1.086 0-1.918-.285-2.5-.86-.575-.581-.86-1.413-.86-2.5V210.99a.45.45 0 0 1 .14-.329.45.45 0 0 1 .329-.14h2.234a.45.45 0 0 1 .328.14.45.45 0 0 1 .141.329v14.218c0 .625.313.938.938.938h1.218c.625 0 .938-.313.938-.938V210.99a.45.45 0 0 1 .14-.329.45.45 0 0 1 .329-.14Zm21.014 3.375v4.297c0 .437-.14.808-.421 1.11a1.851 1.851 0 0 1-1.063.546v.047c.426.062.781.246 1.063.547.28.304.421.672.421 1.11v4.312c0 1.086-.292 1.918-.875 2.5-.574.574-1.414.859-2.515.859h-5.61c-.25 0-.375-.125-.375-.375v-17.953c0-.25.125-.375.375-.375h5.61c1.101 0 1.941.289 2.515.86.583.562.875 1.402.875 2.515Zm-3.109 3.531v-2.875c0-.625-.312-.937-.937-.937h-2.125v4.718h2.125c.625 0 .937-.3.937-.906Zm0 7.781v-2.859c0-.625-.312-.938-.937-.938h-2.125v4.735h2.125c.625 0 .937-.313.937-.938Zm0 0"/><g clip-path="url(#a)"><path fill="#fff" fill-rule="evenodd" d="M116.969 163.203v13.234l27.8 22.254.458.368v13.832c.48.18.921.457 1.277.824a3.535 3.535 0 0 1 1.039 2.496 3.47 3.47 0 0 1-1.04 2.496 3.535 3.535 0 0 1-2.495 1.04 3.48 3.48 0 0 1-2.492-1.04 3.535 3.535 0 0 1-1.04-2.496c0-.977.391-1.863 1.04-2.496a3.58 3.58 0 0 1 1.277-.824v-12.653l-25.84-20.683v22.05l18.05 14.352.458.367v13.2c.48.175.922.456 1.277.824a3.532 3.532 0 0 1 1.04 2.492 3.47 3.47 0 0 1-1.04 2.496 3.535 3.535 0 0 1-2.496 1.039c-.972 0-1.86-.395-2.492-1.04a3.535 3.535 0 0 1-1.04-2.495c0-.973.392-1.86 1.04-2.492a3.529 3.529 0 0 1 1.277-.825v-12.035l-16.086-12.777v22.039c.48.176.926.453 1.282.82a3.545 3.545 0 0 1 1.035 2.496c0 .977-.39 1.864-1.035 2.496a3.549 3.549 0 0 1-2.496 1.04 3.486 3.486 0 0 1-2.497-1.04 3.535 3.535 0 0 1-1.039-2.496 3.5 3.5 0 0 1 1.04-2.496 3.587 3.587 0 0 1 1.28-.82v-11.477L91.786 232.93v12.652c.485.18.926.457 1.281.824a3.535 3.535 0 0 1 1.04 2.496c0 .977-.395 1.864-1.04 2.496a3.535 3.535 0 0 1-2.496 1.04 3.486 3.486 0 0 1-2.496-1.04 3.535 3.535 0 0 1-1.039-2.496c0-.976.395-1.863 1.04-2.496.355-.355.8-.644 1.28-.824v-13.816l.457-.368 24.684-19.23V184.52L98.41 197.3v12.653c.48.176.926.457 1.281.824a3.535 3.535 0 0 1 1.04 2.496c0 .973-.395 1.86-1.04 2.493a3.535 3.535 0 0 1-2.496 1.039 3.47 3.47 0 0 1-2.496-1.04 3.532 3.532 0 0 1-1.039-2.492c0-.976.395-1.863 1.04-2.496a3.544 3.544 0 0 1 1.28-.824v-13.82l.454-.367 18.05-14.348v-23.219h2.434v4.992Zm-.446 66.067a1.07 1.07 0 0 0-.773-.317 1.082 1.082 0 0 0-1.09 1.09 1.082 1.082 0 0 0 1.09 1.09c.305 0 .582-.13.773-.317a1.07 1.07 0 0 0 .317-.773c0-.305-.125-.582-.317-.773Zm-25.14 18.847a1.07 1.07 0 0 0-.774-.316 1.1 1.1 0 0 0-.773.316 1.07 1.07 0 0 0-.316.774c0 .3.125.582.316.77.203.202.469.316.773.316a1.08 1.08 0 0 0 1.09-1.087 1.11 1.11 0 0 0-.316-.773Zm43.66-16.062a1.07 1.07 0 0 0-.773-.317c-.305 0-.583.13-.774.317a1.07 1.07 0 0 0-.316.773c0 .305.125.582.316.774.203.203.469.316.774.316a1.1 1.1 0 0 0 .773-.316 1.07 1.07 0 0 0 .316-.774c0-.305-.129-.582-.316-.773Zm9.75-16.64a1.061 1.061 0 0 0-.77-.317 1.1 1.1 0 0 0-.773.316c-.203.2-.316.469-.316.77 0 .304.125.586.316.773.203.203.469.316.773.316a1.089 1.089 0 0 0 .77-1.859Zm-46.79-2.915a1.061 1.061 0 0 0-.769-.316 1.1 1.1 0 0 0-.773.316 1.07 1.07 0 0 0-.316.773c0 .301.125.582.316.77.203.203.469.316.773.316a1.089 1.089 0 0 0 .77-1.859Zm0 0"/></g><path fill="#fff" fill-rule="evenodd" d="M105.035 136.969c1.598-7.625 1.13-12.426-1.418-14.414 19.367 6.652 27.535 15.847 24.485 27.59-2.915 5.343-5.915 6.789-8.993 4.332-3.246-2.586-3.394-8.211-2.914-11.985.723-5.445-.558-9.082-3.84-10.89 3.625 7.078-.328 12.246.418 16.375.356 1.976 4.485 7.12-.136 7.449-8.828.62-9.614-12.149-7.614-18.442Zm31.313 34.921c5.191-2.507 8.738-3.027 10.625-1.558-8.246-12.754-16.313-16.984-24.22-12.691-3.327 3.054-3.835 5.472-1.503 7.246 2.43 1.875 6.508.976 9.145-.04 3.785-1.492 6.636-1.214 8.523.813-5.738-1.344-8.766 2.418-11.856 2.621-1.48.102-5.93-1.949-5.332 1.43 1.125 6.473 10.461 4.75 14.63 2.18Zm0 0"/><g clip-path="url(#b)"><path fill="#fff" fill-rule="evenodd" d="M95.676 158.324c-5.196 2.508-8.742 3.028-10.63 1.559 8.247 12.754 16.317 16.984 24.22 12.691 3.332-3.05 3.84-5.472 1.507-7.242-2.433-1.875-6.511-.977-9.144.035-3.79 1.496-6.637 1.219-8.524-.808 5.735 1.34 8.762-2.422 11.856-2.621 1.48-.102 5.926 1.949 5.332-1.434-1.129-6.473-10.465-4.75-14.629-2.18Zm0 0"/></g></svg>