<svg xmlns="http://www.w3.org/2000/svg" xmlns:xlink="http://www.w3.org/1999/xlink" width="500" zoomAndPan="magnify" viewBox="0 0 375 374.999991" height="500" preserveAspectRatio="xMidYMid meet" version="1.0"><defs><g/><clipPath id="163305ea64"><path d="M 87 158 L 147.296875 158 L 147.296875 253 L 87 253 Z M 87 158 " clip-rule="nonzero"/></clipPath><clipPath id="78459ae636"><path d="M 85.046875 156 L 113 156 L 113 175 L 85.046875 175 Z M 85.046875 156 " clip-rule="nonzero"/></clipPath></defs><rect x="-37.5" width="450" fill="#ffffff" y="-37.499999" height="449.999989" fill-opacity="1"/><rect x="-37.5" width="450" fill="#072b56" y="-37.499999" height="449.999989" fill-opacity="1"/><g fill="#ffffff" fill-opacity="1"><g transform="translate(166.864974, 164.509764)"><g><path d="M 1.171875 -0.375 L 1.171875 -18.328125 C 1.171875 -18.578125 1.296875 -18.703125 1.546875 -18.703125 L 7.15625 -18.703125 C 8.257812 -18.703125 9.09375 -18.410156 9.65625 -17.828125 C 10.226562 -17.253906 10.515625 -16.414062 10.515625 -15.3125 L 10.515625 -3.359375 C 10.515625 -2.273438 10.226562 -1.441406 9.65625 -0.859375 C 9.09375 -0.285156 8.257812 0 7.15625 0 L 1.546875 0 C 1.296875 0 1.171875 -0.125 1.171875 -0.375 Z M 4.34375 -3.078125 L 6.5 -3.078125 C 7.125 -3.078125 7.4375 -3.390625 7.4375 -4.015625 L 7.4375 -14.65625 C 7.4375 -15.289062 7.125 -15.609375 6.5 -15.609375 L 4.34375 -15.609375 Z M 4.34375 -3.078125 "/></g></g></g><g fill="#ffffff" fill-opacity="1"><g transform="translate(185.239313, 164.509764)"><g><path d="M 12.4375 0 L 9.953125 0 C 9.753906 0 9.628906 -0.109375 9.578125 -0.328125 L 8.921875 -3.734375 L 4.765625 -3.734375 L 4.140625 -0.328125 C 4.085938 -0.109375 3.960938 0 3.765625 0 L 1.265625 0 C 0.984375 0 0.878906 -0.128906 0.953125 -0.390625 L 4.84375 -18.375 C 4.882812 -18.59375 5.015625 -18.703125 5.234375 -18.703125 L 8.484375 -18.703125 C 8.703125 -18.703125 8.832031 -18.59375 8.875 -18.375 L 12.765625 -0.390625 C 12.804688 -0.128906 12.695312 0 12.4375 0 Z M 8.34375 -6.453125 L 6.84375 -14.609375 L 5.359375 -6.453125 Z M 8.34375 -6.453125 "/></g></g></g><g fill="#ffffff" fill-opacity="1"><g transform="translate(205.623994, 164.509764)"><g><path d="M 1.078125 -18.703125 L 9.671875 -18.703125 C 9.921875 -18.703125 10.046875 -18.578125 10.046875 -18.328125 L 10.046875 -15.984375 C 10.046875 -15.734375 9.921875 -15.609375 9.671875 -15.609375 L 6.96875 -15.609375 L 6.96875 -0.375 C 6.96875 -0.125 6.84375 0 6.59375 0 L 4.15625 0 C 3.90625 0 3.78125 -0.125 3.78125 -0.375 L 3.78125 -15.609375 L 1.078125 -15.609375 C 0.828125 -15.609375 0.703125 -15.734375 0.703125 -15.984375 L 0.703125 -18.328125 C 0.703125 -18.578125 0.828125 -18.703125 1.078125 -18.703125 Z M 1.078125 -18.703125 "/></g></g></g><g fill="#ffffff" fill-opacity="1"><g transform="translate(223.063291, 164.509764)"><g><path d="M 12.4375 0 L 9.953125 0 C 9.753906 0 9.628906 -0.109375 9.578125 -0.328125 L 8.921875 -3.734375 L 4.765625 -3.734375 L 4.140625 -0.328125 C 4.085938 -0.109375 3.960938 0 3.765625 0 L 1.265625 0 C 0.984375 0 0.878906 -0.128906 0.953125 -0.390625 L 4.84375 -18.375 C 4.882812 -18.59375 5.015625 -18.703125 5.234375 -18.703125 L 8.484375 -18.703125 C 8.703125 -18.703125 8.832031 -18.59375 8.875 -18.375 L 12.765625 -0.390625 C 12.804688 -0.128906 12.695312 0 12.4375 0 Z M 8.34375 -6.453125 L 6.84375 -14.609375 L 5.359375 -6.453125 Z M 8.34375 -6.453125 "/></g></g></g><g fill="#ffffff" fill-opacity="1"><g transform="translate(166.864974, 196.866371)"><g><path d="M 4.53125 -18.703125 L 7.15625 -18.703125 C 8.257812 -18.703125 9.09375 -18.414062 9.65625 -17.84375 C 10.226562 -17.28125 10.515625 -16.441406 10.515625 -15.328125 L 10.515625 -12.859375 C 10.515625 -12.609375 10.390625 -12.484375 10.140625 -12.484375 L 7.71875 -12.484375 C 7.46875 -12.484375 7.34375 -12.609375 7.34375 -12.859375 L 7.34375 -14.671875 C 7.34375 -15.296875 7.03125 -15.609375 6.40625 -15.609375 L 5.28125 -15.609375 C 4.65625 -15.609375 4.34375 -15.296875 4.34375 -14.671875 L 4.34375 -11.453125 L 9.90625 -9.625 C 10.3125 -9.457031 10.515625 -9.171875 10.515625 -8.765625 L 10.515625 -3.359375 C 10.515625 -2.273438 10.226562 -1.441406 9.65625 -0.859375 C 9.09375 -0.285156 8.257812 0 7.15625 0 L 4.53125 0 C 3.445312 0 2.613281 -0.285156 2.03125 -0.859375 C 1.457031 -1.441406 1.171875 -2.273438 1.171875 -3.359375 L 1.171875 -5.828125 C 1.171875 -6.066406 1.296875 -6.1875 1.546875 -6.1875 L 3.96875 -6.1875 C 4.21875 -6.1875 4.34375 -6.066406 4.34375 -5.828125 L 4.34375 -4.015625 C 4.34375 -3.390625 4.65625 -3.078125 5.28125 -3.078125 L 6.40625 -3.078125 C 7.03125 -3.078125 7.34375 -3.390625 7.34375 -4.015625 L 7.34375 -7.125 L 1.796875 -8.953125 C 1.378906 -9.085938 1.171875 -9.375 1.171875 -9.8125 L 1.171875 -15.328125 C 1.171875 -16.441406 1.457031 -17.28125 2.03125 -17.84375 C 2.613281 -18.414062 3.445312 -18.703125 4.53125 -18.703125 Z M 4.53125 -18.703125 "/></g></g></g><g fill="#ffffff" fill-opacity="1"><g transform="translate(185.239313, 196.866371)"><g><path d="M 10.546875 -15.328125 L 10.546875 -12.8125 C 10.546875 -12.5625 10.421875 -12.4375 10.171875 -12.4375 L 7.828125 -12.4375 C 7.578125 -12.4375 7.453125 -12.5625 7.453125 -12.8125 L 7.453125 -14.671875 C 7.453125 -15.296875 7.140625 -15.609375 6.515625 -15.609375 L 5.3125 -15.609375 C 4.6875 -15.609375 4.375 -15.296875 4.375 -14.671875 L 4.375 -4.015625 C 4.375 -3.390625 4.6875 -3.078125 5.3125 -3.078125 L 6.515625 -3.078125 C 7.140625 -3.078125 7.453125 -3.390625 7.453125 -4.015625 L 7.453125 -5.890625 C 7.453125 -6.140625 7.578125 -6.265625 7.828125 -6.265625 L 10.171875 -6.265625 C 10.421875 -6.265625 10.546875 -6.140625 10.546875 -5.890625 L 10.546875 -3.359375 C 10.546875 -2.273438 10.253906 -1.441406 9.671875 -0.859375 C 9.097656 -0.285156 8.265625 0 7.171875 0 L 4.5625 0 C 3.46875 0 2.628906 -0.285156 2.046875 -0.859375 C 1.460938 -1.441406 1.171875 -2.273438 1.171875 -3.359375 L 1.171875 -15.328125 C 1.171875 -16.441406 1.460938 -17.28125 2.046875 -17.84375 C 2.628906 -18.414062 3.46875 -18.703125 4.5625 -18.703125 L 7.171875 -18.703125 C 8.265625 -18.703125 9.097656 -18.414062 9.671875 -17.84375 C 10.253906 -17.28125 10.546875 -16.441406 10.546875 -15.328125 Z M 10.546875 -15.328125 "/></g></g></g><g fill="#ffffff" fill-opacity="1"><g transform="translate(203.637026, 196.866371)"><g><path d="M 1.546875 -18.703125 L 3.96875 -18.703125 C 4.21875 -18.703125 4.34375 -18.578125 4.34375 -18.328125 L 4.34375 -0.375 C 4.34375 -0.125 4.21875 0 3.96875 0 L 1.546875 0 C 1.296875 0 1.171875 -0.125 1.171875 -0.375 L 1.171875 -18.328125 C 1.171875 -18.578125 1.296875 -18.703125 1.546875 -18.703125 Z M 1.546875 -18.703125 "/></g></g></g><g fill="#ffffff" fill-opacity="1"><g transform="translate(215.840073, 196.866371)"><g><path d="M 10.5 -18.328125 L 10.5 -15.984375 C 10.5 -15.722656 10.375 -15.59375 10.125 -15.59375 L 4.28125 -15.59375 L 4.28125 -10.921875 L 8.75 -10.921875 C 8.988281 -10.921875 9.109375 -10.785156 9.109375 -10.515625 L 9.109375 -8.203125 C 9.109375 -7.941406 8.988281 -7.8125 8.75 -7.8125 L 4.28125 -7.8125 L 4.28125 -3.078125 L 10.125 -3.078125 C 10.375 -3.078125 10.5 -2.957031 10.5 -2.71875 L 10.5 -0.375 C 10.5 -0.125 10.375 0 10.125 0 L 1.515625 0 C 1.285156 0 1.171875 -0.125 1.171875 -0.375 L 1.171875 -18.328125 C 1.171875 -18.578125 1.285156 -18.703125 1.515625 -18.703125 L 10.125 -18.703125 C 10.375 -18.703125 10.5 -18.578125 10.5 -18.328125 Z M 10.5 -18.328125 "/></g></g></g><g fill="#ffffff" fill-opacity="1"><g transform="translate(234.191039, 196.866371)"><g><path d="M 8.34375 -18.703125 L 10.78125 -18.703125 C 11.03125 -18.703125 11.15625 -18.578125 11.15625 -18.328125 L 11.15625 -0.375 C 11.15625 -0.125 11.03125 0 10.78125 0 L 8.46875 0 C 8.25 0 8.109375 -0.0976562 8.046875 -0.296875 L 4.46875 -10.28125 L 4.34375 -10.28125 L 4.34375 -0.375 C 4.34375 -0.125 4.21875 0 3.96875 0 L 1.546875 0 C 1.296875 0 1.171875 -0.125 1.171875 -0.375 L 1.171875 -18.328125 C 1.171875 -18.578125 1.296875 -18.703125 1.546875 -18.703125 L 3.859375 -18.703125 C 4.078125 -18.703125 4.21875 -18.597656 4.28125 -18.390625 L 7.828125 -8.46875 L 7.96875 -8.46875 L 7.96875 -18.328125 C 7.96875 -18.578125 8.09375 -18.703125 8.34375 -18.703125 Z M 8.34375 -18.703125 "/></g></g></g><g fill="#ffffff" fill-opacity="1"><g transform="translate(253.196535, 196.866371)"><g><path d="M 10.546875 -15.328125 L 10.546875 -12.8125 C 10.546875 -12.5625 10.421875 -12.4375 10.171875 -12.4375 L 7.828125 -12.4375 C 7.578125 -12.4375 7.453125 -12.5625 7.453125 -12.8125 L 7.453125 -14.671875 C 7.453125 -15.296875 7.140625 -15.609375 6.515625 -15.609375 L 5.3125 -15.609375 C 4.6875 -15.609375 4.375 -15.296875 4.375 -14.671875 L 4.375 -4.015625 C 4.375 -3.390625 4.6875 -3.078125 5.3125 -3.078125 L 6.515625 -3.078125 C 7.140625 -3.078125 7.453125 -3.390625 7.453125 -4.015625 L 7.453125 -5.890625 C 7.453125 -6.140625 7.578125 -6.265625 7.828125 -6.265625 L 10.171875 -6.265625 C 10.421875 -6.265625 10.546875 -6.140625 10.546875 -5.890625 L 10.546875 -3.359375 C 10.546875 -2.273438 10.253906 -1.441406 9.671875 -0.859375 C 9.097656 -0.285156 8.265625 0 7.171875 0 L 4.5625 0 C 3.46875 0 2.628906 -0.285156 2.046875 -0.859375 C 1.460938 -1.441406 1.171875 -2.273438 1.171875 -3.359375 L 1.171875 -15.328125 C 1.171875 -16.441406 1.460938 -17.28125 2.046875 -17.84375 C 2.628906 -18.414062 3.46875 -18.703125 4.5625 -18.703125 L 7.171875 -18.703125 C 8.265625 -18.703125 9.097656 -18.414062 9.671875 -17.84375 C 10.253906 -17.28125 10.546875 -16.441406 10.546875 -15.328125 Z M 10.546875 -15.328125 "/></g></g></g><g fill="#ffffff" fill-opacity="1"><g transform="translate(271.594252, 196.866371)"><g><path d="M 10.5 -18.328125 L 10.5 -15.984375 C 10.5 -15.722656 10.375 -15.59375 10.125 -15.59375 L 4.28125 -15.59375 L 4.28125 -10.921875 L 8.75 -10.921875 C 8.988281 -10.921875 9.109375 -10.785156 9.109375 -10.515625 L 9.109375 -8.203125 C 9.109375 -7.941406 8.988281 -7.8125 8.75 -7.8125 L 4.28125 -7.8125 L 4.28125 -3.078125 L 10.125 -3.078125 C 10.375 -3.078125 10.5 -2.957031 10.5 -2.71875 L 10.5 -0.375 C 10.5 -0.125 10.375 0 10.125 0 L 1.515625 0 C 1.285156 0 1.171875 -0.125 1.171875 -0.375 L 1.171875 -18.328125 C 1.171875 -18.578125 1.285156 -18.703125 1.515625 -18.703125 L 10.125 -18.703125 C 10.375 -18.703125 10.5 -18.578125 10.5 -18.328125 Z M 10.5 -18.328125 "/></g></g></g><g fill="#ffffff" fill-opacity="1"><g transform="translate(166.864974, 229.222978)"><g><path d="M 10.546875 -15.328125 L 10.546875 -12.8125 C 10.546875 -12.5625 10.421875 -12.4375 10.171875 -12.4375 L 7.828125 -12.4375 C 7.578125 -12.4375 7.453125 -12.5625 7.453125 -12.8125 L 7.453125 -14.671875 C 7.453125 -15.296875 7.140625 -15.609375 6.515625 -15.609375 L 5.3125 -15.609375 C 4.6875 -15.609375 4.375 -15.296875 4.375 -14.671875 L 4.375 -4.015625 C 4.375 -3.390625 4.6875 -3.078125 5.3125 -3.078125 L 6.515625 -3.078125 C 7.140625 -3.078125 7.453125 -3.390625 7.453125 -4.015625 L 7.453125 -5.890625 C 7.453125 -6.140625 7.578125 -6.265625 7.828125 -6.265625 L 10.171875 -6.265625 C 10.421875 -6.265625 10.546875 -6.140625 10.546875 -5.890625 L 10.546875 -3.359375 C 10.546875 -2.273438 10.253906 -1.441406 9.671875 -0.859375 C 9.097656 -0.285156 8.265625 0 7.171875 0 L 4.5625 0 C 3.46875 0 2.628906 -0.285156 2.046875 -0.859375 C 1.460938 -1.441406 1.171875 -2.273438 1.171875 -3.359375 L 1.171875 -15.328125 C 1.171875 -16.441406 1.460938 -17.28125 2.046875 -17.84375 C 2.628906 -18.414062 3.46875 -18.703125 4.5625 -18.703125 L 7.171875 -18.703125 C 8.265625 -18.703125 9.097656 -18.414062 9.671875 -17.84375 C 10.253906 -17.28125 10.546875 -16.441406 10.546875 -15.328125 Z M 10.546875 -15.328125 "/></g></g></g><g fill="#ffffff" fill-opacity="1"><g transform="translate(185.262687, 229.222978)"><g><path d="M 4.34375 -3.078125 L 4.34375 -18.328125 C 4.34375 -18.578125 4.21875 -18.703125 3.96875 -18.703125 L 1.546875 -18.703125 C 1.296875 -18.703125 1.171875 -18.578125 1.171875 -18.328125 L 1.171875 -0.375 C 1.171875 -0.125 1.296875 0 1.546875 0 L 9.90625 0 C 10.15625 0 10.28125 -0.125 10.28125 -0.375 L 10.28125 -2.71875 C 10.28125 -2.957031 10.15625 -3.078125 9.90625 -3.078125 Z M 4.34375 -3.078125 "/></g></g></g><g fill="#ffffff" fill-opacity="1"><g transform="translate(203.403262, 229.222978)"><g><path d="M 7.90625 -18.703125 L 10.046875 -18.703125 C 10.171875 -18.703125 10.28125 -18.65625 10.375 -18.5625 C 10.46875 -18.46875 10.515625 -18.359375 10.515625 -18.234375 L 10.515625 -3.359375 C 10.515625 -2.273438 10.226562 -1.441406 9.65625 -0.859375 C 9.09375 -0.285156 8.257812 0 7.15625 0 L 4.53125 0 C 3.445312 0 2.613281 -0.285156 2.03125 -0.859375 C 1.457031 -1.441406 1.171875 -2.273438 1.171875 -3.359375 L 1.171875 -18.234375 C 1.171875 -18.359375 1.21875 -18.46875 1.3125 -18.5625 C 1.40625 -18.65625 1.515625 -18.703125 1.640625 -18.703125 L 3.875 -18.703125 C 4 -18.703125 4.109375 -18.65625 4.203125 -18.5625 C 4.296875 -18.46875 4.34375 -18.359375 4.34375 -18.234375 L 4.34375 -4.015625 C 4.34375 -3.390625 4.65625 -3.078125 5.28125 -3.078125 L 6.5 -3.078125 C 7.125 -3.078125 7.4375 -3.390625 7.4375 -4.015625 L 7.4375 -18.234375 C 7.4375 -18.359375 7.484375 -18.46875 7.578125 -18.5625 C 7.671875 -18.65625 7.78125 -18.703125 7.90625 -18.703125 Z M 7.90625 -18.703125 "/></g></g></g><g fill="#ffffff" fill-opacity="1"><g transform="translate(221.777598, 229.222978)"><g><path d="M 10.546875 -15.328125 L 10.546875 -11.03125 C 10.546875 -10.59375 10.40625 -10.222656 10.125 -9.921875 C 9.84375 -9.628906 9.488281 -9.445312 9.0625 -9.375 L 9.0625 -9.328125 C 9.488281 -9.265625 9.84375 -9.082031 10.125 -8.78125 C 10.40625 -8.476562 10.546875 -8.109375 10.546875 -7.671875 L 10.546875 -3.359375 C 10.546875 -2.273438 10.253906 -1.441406 9.671875 -0.859375 C 9.097656 -0.285156 8.257812 0 7.15625 0 L 1.546875 0 C 1.296875 0 1.171875 -0.125 1.171875 -0.375 L 1.171875 -18.328125 C 1.171875 -18.578125 1.296875 -18.703125 1.546875 -18.703125 L 7.15625 -18.703125 C 8.257812 -18.703125 9.097656 -18.414062 9.671875 -17.84375 C 10.253906 -17.28125 10.546875 -16.441406 10.546875 -15.328125 Z M 7.4375 -11.796875 L 7.4375 -14.671875 C 7.4375 -15.296875 7.125 -15.609375 6.5 -15.609375 L 4.375 -15.609375 L 4.375 -10.890625 L 6.5 -10.890625 C 7.125 -10.890625 7.4375 -11.191406 7.4375 -11.796875 Z M 7.4375 -4.015625 L 7.4375 -6.875 C 7.4375 -7.5 7.125 -7.8125 6.5 -7.8125 L 4.375 -7.8125 L 4.375 -3.078125 L 6.5 -3.078125 C 7.125 -3.078125 7.4375 -3.390625 7.4375 -4.015625 Z M 7.4375 -4.015625 "/></g></g></g><g clip-path="url(#163305ea64)"><path fill="#ffffff" d="M 116.96875 163.203125 L 116.96875 176.4375 L 144.769531 198.691406 L 145.226562 199.058594 L 145.226562 212.890625 C 145.707031 213.070312 146.148438 213.347656 146.503906 213.714844 C 147.136719 214.347656 147.542969 215.234375 147.542969 216.210938 C 147.542969 217.1875 147.152344 218.074219 146.503906 218.707031 C 145.871094 219.339844 144.984375 219.746094 144.007812 219.746094 C 143.035156 219.746094 142.148438 219.351562 141.515625 218.707031 C 140.882812 218.074219 140.476562 217.1875 140.476562 216.210938 C 140.476562 215.234375 140.867188 214.347656 141.515625 213.714844 C 141.867188 213.359375 142.3125 213.070312 142.792969 212.890625 L 142.792969 200.238281 L 116.953125 179.554688 L 116.953125 201.605469 L 135.003906 215.957031 L 135.460938 216.324219 L 135.460938 229.523438 C 135.941406 229.699219 136.382812 229.980469 136.738281 230.347656 C 137.371094 230.980469 137.777344 231.867188 137.777344 232.839844 C 137.777344 233.816406 137.386719 234.703125 136.738281 235.335938 C 136.105469 235.96875 135.21875 236.375 134.242188 236.375 C 133.269531 236.375 132.382812 235.980469 131.75 235.335938 C 131.117188 234.703125 130.710938 233.816406 130.710938 232.839844 C 130.710938 231.867188 131.101562 230.980469 131.75 230.347656 C 132.101562 229.992188 132.546875 229.699219 133.027344 229.523438 L 133.027344 217.488281 L 116.941406 204.710938 L 116.941406 226.75 C 117.421875 226.925781 117.867188 227.203125 118.222656 227.570312 C 118.855469 228.207031 119.257812 229.09375 119.257812 230.066406 C 119.257812 231.042969 118.867188 231.929688 118.222656 232.5625 C 117.585938 233.195312 116.699219 233.601562 115.726562 233.601562 C 114.75 233.601562 113.863281 233.207031 113.230469 232.5625 C 112.597656 231.929688 112.191406 231.042969 112.191406 230.066406 C 112.191406 229.09375 112.585938 228.207031 113.230469 227.570312 C 113.585938 227.21875 114.027344 226.925781 114.511719 226.75 L 114.511719 215.273438 L 91.785156 232.929688 L 91.785156 245.582031 C 92.269531 245.761719 92.710938 246.039062 93.066406 246.40625 C 93.699219 247.039062 94.105469 247.925781 94.105469 248.902344 C 94.105469 249.878906 93.710938 250.765625 93.066406 251.398438 C 92.433594 252.03125 91.546875 252.4375 90.570312 252.4375 C 89.59375 252.4375 88.707031 252.042969 88.074219 251.398438 C 87.441406 250.765625 87.035156 249.878906 87.035156 248.902344 C 87.035156 247.925781 87.429688 247.039062 88.074219 246.40625 C 88.429688 246.050781 88.875 245.761719 89.355469 245.582031 L 89.355469 231.765625 L 89.8125 231.398438 L 114.496094 212.167969 L 114.496094 184.519531 L 98.410156 197.300781 L 98.410156 209.953125 C 98.890625 210.128906 99.335938 210.410156 99.691406 210.777344 C 100.324219 211.410156 100.730469 212.296875 100.730469 213.273438 C 100.730469 214.246094 100.335938 215.132812 99.691406 215.765625 C 99.058594 216.398438 98.171875 216.804688 97.195312 216.804688 C 96.21875 216.804688 95.332031 216.414062 94.699219 215.765625 C 94.066406 215.132812 93.660156 214.246094 93.660156 213.273438 C 93.660156 212.296875 94.054688 211.410156 94.699219 210.777344 C 95.054688 210.421875 95.496094 210.128906 95.980469 209.953125 L 95.980469 196.132812 L 96.433594 195.765625 L 114.484375 181.417969 L 114.484375 158.199219 L 116.917969 158.199219 L 116.917969 163.191406 Z M 116.523438 229.269531 C 116.320312 229.066406 116.054688 228.953125 115.75 228.953125 C 115.445312 228.953125 115.167969 229.078125 114.976562 229.269531 C 114.777344 229.472656 114.660156 229.738281 114.660156 230.042969 C 114.660156 230.347656 114.789062 230.625 114.976562 230.816406 C 115.179688 231.015625 115.445312 231.132812 115.75 231.132812 C 116.054688 231.132812 116.332031 231.003906 116.523438 230.816406 C 116.726562 230.613281 116.839844 230.347656 116.839844 230.042969 C 116.839844 229.738281 116.714844 229.460938 116.523438 229.269531 Z M 91.382812 248.117188 C 91.179688 247.914062 90.914062 247.800781 90.609375 247.800781 C 90.304688 247.800781 90.027344 247.925781 89.835938 248.117188 C 89.632812 248.320312 89.519531 248.585938 89.519531 248.890625 C 89.519531 249.191406 89.644531 249.472656 89.835938 249.660156 C 90.039062 249.863281 90.304688 249.976562 90.609375 249.976562 C 90.914062 249.976562 91.191406 249.851562 91.382812 249.660156 C 91.582031 249.460938 91.699219 249.191406 91.699219 248.890625 C 91.699219 248.585938 91.570312 248.304688 91.382812 248.117188 Z M 135.042969 232.054688 C 134.839844 231.851562 134.574219 231.738281 134.269531 231.738281 C 133.964844 231.738281 133.6875 231.867188 133.496094 232.054688 C 133.292969 232.257812 133.179688 232.523438 133.179688 232.828125 C 133.179688 233.132812 133.304688 233.410156 133.496094 233.601562 C 133.699219 233.804688 133.964844 233.917969 134.269531 233.917969 C 134.574219 233.917969 134.851562 233.792969 135.042969 233.601562 C 135.246094 233.398438 135.359375 233.132812 135.359375 232.828125 C 135.359375 232.523438 135.230469 232.246094 135.042969 232.054688 Z M 144.792969 215.414062 C 144.59375 215.210938 144.324219 215.097656 144.023438 215.097656 C 143.71875 215.097656 143.441406 215.222656 143.25 215.414062 C 143.046875 215.613281 142.933594 215.882812 142.933594 216.183594 C 142.933594 216.488281 143.058594 216.769531 143.25 216.957031 C 143.453125 217.160156 143.71875 217.273438 144.023438 217.273438 C 144.324219 217.273438 144.605469 217.148438 144.792969 216.957031 C 144.996094 216.753906 145.113281 216.488281 145.113281 216.183594 C 145.113281 215.882812 144.984375 215.601562 144.792969 215.414062 Z M 98.003906 212.5 C 97.804688 212.296875 97.535156 212.183594 97.234375 212.183594 C 96.929688 212.183594 96.652344 212.308594 96.460938 212.5 C 96.257812 212.703125 96.144531 212.96875 96.144531 213.273438 C 96.144531 213.574219 96.269531 213.855469 96.460938 214.042969 C 96.664062 214.246094 96.929688 214.359375 97.234375 214.359375 C 97.535156 214.359375 97.816406 214.234375 98.003906 214.042969 C 98.207031 213.839844 98.324219 213.574219 98.324219 213.273438 C 98.324219 212.96875 98.195312 212.6875 98.003906 212.5 Z M 98.003906 212.5 " fill-opacity="1" fill-rule="evenodd"/></g><path fill="#ffffff" d="M 105.035156 136.96875 C 106.632812 129.34375 106.164062 124.542969 103.617188 122.554688 C 122.984375 129.207031 131.152344 138.402344 128.101562 150.144531 C 125.1875 155.488281 122.1875 156.933594 119.109375 154.476562 C 115.863281 151.890625 115.714844 146.265625 116.195312 142.492188 C 116.917969 137.046875 115.636719 133.410156 112.355469 131.601562 C 115.980469 138.679688 112.027344 143.847656 112.773438 147.976562 C 113.128906 149.953125 117.257812 155.097656 112.636719 155.425781 C 103.808594 156.046875 103.023438 143.277344 105.023438 136.984375 Z M 105.035156 136.96875 " fill-opacity="1" fill-rule="evenodd"/><path fill="#ffffff" d="M 136.347656 171.890625 C 141.539062 169.382812 145.085938 168.863281 146.972656 170.332031 C 138.726562 157.578125 130.660156 153.347656 122.753906 157.640625 C 119.425781 160.695312 118.917969 163.113281 121.25 164.886719 C 123.679688 166.761719 127.757812 165.863281 130.394531 164.847656 C 134.179688 163.355469 137.03125 163.632812 138.917969 165.660156 C 133.179688 164.316406 130.152344 168.078125 127.0625 168.28125 C 125.582031 168.382812 121.132812 166.332031 121.730469 169.710938 C 122.855469 176.183594 132.191406 174.460938 136.359375 171.890625 Z M 136.347656 171.890625 " fill-opacity="1" fill-rule="evenodd"/><g clip-path="url(#78459ae636)"><path fill="#ffffff" d="M 95.675781 158.324219 C 90.480469 160.832031 86.933594 161.351562 85.046875 159.882812 C 93.292969 172.636719 101.363281 176.867188 109.265625 172.574219 C 112.597656 169.523438 113.105469 167.101562 110.773438 165.332031 C 108.339844 163.457031 104.261719 164.355469 101.628906 165.367188 C 97.839844 166.863281 94.992188 166.585938 93.105469 164.558594 C 98.839844 165.898438 101.867188 162.136719 104.960938 161.9375 C 106.441406 161.835938 110.886719 163.886719 110.292969 160.503906 C 109.164062 154.03125 99.828125 155.753906 95.664062 158.324219 Z M 95.675781 158.324219 " fill-opacity="1" fill-rule="evenodd"/></g></svg>