<svg version="1.1" id="Layer_1" xmlns="http://www.w3.org/2000/svg" xmlns:xlink="http://www.w3.org/1999/xlink" x="0px" y="0px"
	 width="100%" viewBox="0 0 992 992" enable-background="new 0 0 992 992" xml:space="preserve">
<path fill="#000000" opacity="1.000000" stroke="none" 
	d="
M406.517578,194.325500 
	C434.677216,187.442963 462.147736,188.123703 488.582153,199.382294 
	C513.053406,209.804779 533.374634,226.097336 550.023010,246.874634 
	C555.293396,253.452179 555.046204,253.216568 561.986755,248.909592 
	C581.938354,236.528427 603.425110,230.306915 627.158569,233.040833 
	C660.997070,236.938828 683.986328,256.595215 702.420654,283.550415 
	C717.104858,305.022125 718.951233,328.239838 713.602051,352.779144 
	C713.325317,354.048431 713.003296,355.307831 712.627930,356.884064 
	C729.235474,356.945099 744.457397,361.429749 758.759521,368.909393 
	C776.590820,378.234558 789.840515,391.901947 797.839783,410.662903 
	C808.823181,436.422424 808.632385,461.833557 794.218445,485.883606 
	C776.196716,515.953430 749.435059,532.165771 713.818787,533.552368 
	C693.743286,534.334045 675.486572,530.079407 659.212830,518.185181 
	C656.738770,516.376953 654.819153,516.872131 652.412964,518.188416 
	C631.881653,529.420227 610.453735,538.481812 587.589966,543.737244 
	C558.917603,550.327820 529.925232,553.756958 500.451294,551.318176 
	C460.310913,547.996826 423.911743,533.617126 389.382660,513.702637 
	C385.926636,511.709351 382.265350,510.070984 378.817749,508.064392 
	C376.260834,506.576233 374.843048,508.141907 373.179932,509.590668 
	C358.694275,522.209045 341.904724,530.266357 323.266296,534.570129 
	C311.548584,537.275818 299.788605,536.897339 288.170807,534.116272 
	C245.900620,523.997559 216.230789,499.506531 204.104919,457.021271 
	C193.534073,419.984344 202.996933,386.828308 228.176758,358.288208 
	C248.907379,334.791046 275.884735,323.425812 306.736084,320.698181 
	C309.612640,320.443878 310.938263,319.485901 311.288544,316.676941 
	C311.964813,311.254486 312.678253,305.830963 313.595612,300.445251 
	C319.083801,268.224670 334.896271,241.533417 358.357147,219.370224 
	C371.779999,206.689835 388.338867,199.192551 406.517578,194.325500 
M210.441544,405.086365 
	C209.829819,409.369720 209.296768,413.666046 208.592804,417.934204 
	C205.483398,436.786896 208.275452,455.019928 217.080200,471.653198 
	C231.801880,499.464294 254.700531,518.102356 285.415771,525.764771 
	C303.825684,530.357483 322.082031,527.137695 339.772736,520.788696 
	C351.313751,516.646729 361.375488,510.212158 370.269562,501.293335 
	C360.634155,492.294373 351.246918,483.594025 341.934967,474.813751 
	C329.812347,463.383240 318.078583,451.946045 312.065643,435.518738 
	C305.493011,417.562225 311.366852,402.822052 324.936554,392.838806 
	C337.041962,383.932892 358.948029,381.440796 376.011749,396.889801 
	C387.228546,387.867737 394.159546,385.329224 407.049957,386.000214 
	C422.797485,386.819946 439.412109,398.126190 441.867981,413.202972 
	C444.024963,426.444641 440.277740,438.661316 433.040833,449.739105 
	C425.118408,461.866150 413.839203,470.864746 403.432526,480.661835 
	C396.584015,487.109222 389.678925,493.506104 383.504791,500.747498 
	C404.673157,515.741638 427.638397,525.856445 451.442108,534.018311 
	C475.836548,542.382812 500.914093,546.307556 526.910278,545.060120 
	C550.655518,543.920715 573.834839,540.208618 596.647766,533.781250 
	C615.996765,528.329834 634.093628,519.916382 651.496521,510.021271 
	C655.805420,507.571289 658.722168,507.904419 662.573975,510.905212 
	C680.579041,524.932129 701.204285,530.473755 723.545410,526.333252 
	C746.279358,522.119873 766.049744,511.503052 780.430542,492.913086 
	C794.800842,474.336609 803.421265,453.712738 796.914001,429.685394 
	C793.017944,415.299133 787.278748,401.535156 776.173279,390.968597 
	C757.681335,373.374084 735.873901,363.739380 709.986084,364.106873 
	C702.681458,364.210571 701.446533,361.976471 704.317688,355.171906 
	C704.769531,354.100891 705.425781,353.117737 705.911072,352.058868 
	C709.600220,344.008484 710.663086,335.191772 710.217346,326.741760 
	C709.622925,315.472931 706.114868,304.663025 700.333862,294.617798 
	C687.747498,272.747437 670.888306,255.474915 647.436340,245.663239 
	C630.762024,238.687149 613.171570,237.068176 595.625916,241.989365 
	C583.973938,245.257462 572.253357,248.959854 563.105957,257.688660 
	C556.036255,264.434814 552.596375,264.277771 547.184753,256.306519 
	C537.695312,242.328629 525.525391,231.078918 511.998108,221.224075 
	C490.294159,205.412292 466.176788,196.301559 439.091064,196.517044 
	C428.785034,196.599045 418.568909,198.444275 408.622986,201.256210 
	C390.760071,206.306412 374.148743,214.339172 360.953186,227.332138 
	C334.728516,253.154175 319.568787,284.430176 318.388489,321.765717 
	C318.273590,325.399078 316.620789,327.343201 312.858002,327.291229 
	C308.695831,327.233765 304.575317,327.491577 300.439056,328.168823 
	C279.266785,331.635406 259.937500,339.780853 243.691849,353.561035 
	C227.854156,366.995117 216.522430,384.033936 210.441544,405.086365 
M401.441071,472.917114 
	C405.478607,469.202332 409.497070,465.466553 413.557861,461.777374 
	C421.009674,455.007263 427.517975,447.462128 431.689301,438.229279 
	C438.413940,423.345001 436.398193,411.440430 427.986328,402.323456 
	C415.199493,388.464844 392.092072,388.391632 379.613800,404.050293 
	C377.442322,406.775177 375.418915,407.172211 373.144318,404.433533 
	C370.995148,401.845764 368.449982,399.734009 365.723663,397.805603 
	C347.844086,385.158844 319.242767,395.240814 316.894318,417.639069 
	C315.590240,430.076630 319.905609,440.379791 327.224304,449.428040 
	C340.652191,466.029236 357.724152,479.027710 372.855682,493.959930 
	C375.819244,496.884399 377.844879,496.160980 380.337311,493.676147 
	C387.158356,486.875977 394.061157,480.157715 401.441071,472.917114 
z"/>
<path fill="#000000" opacity="1.000000" stroke="none" 
	d="
M567.653809,600.643188 
	C575.766968,599.118958 583.589783,599.996460 591.388367,599.795593 
	C593.620605,599.738037 594.761169,600.964294 594.941895,603.114807 
	C595.039368,604.273865 595.055115,605.442444 595.055481,606.606689 
	C595.067871,645.905640 595.079529,685.204651 595.076111,724.503601 
	C595.075439,732.365417 595.047363,732.365540 587.061462,732.362549 
	C583.064941,732.361084 579.064758,732.250854 575.072876,732.385315 
	C570.424316,732.541870 565.601196,733.177185 566.618103,725.797241 
	C542.186035,738.410095 525.457397,736.960693 512.206299,721.464661 
	C499.451355,706.548828 498.498688,682.629456 510.043182,666.673035 
	C516.532959,657.703125 525.306519,652.457703 536.250488,650.966919 
	C546.941833,649.510559 556.647217,652.455261 565.494202,658.289490 
	C567.319214,656.493896 566.636902,654.555847 566.644897,652.834351 
	C566.715515,637.514709 566.689941,622.194519 566.728699,606.874695 
	C566.733704,604.897034 566.419312,602.866394 567.653809,600.643188 
M566.681763,687.876709 
	C563.100159,677.510315 554.071350,672.683899 543.907898,675.702576 
	C534.797913,678.408447 529.832275,688.573853 532.652893,698.743225 
	C535.068298,707.451477 544.737000,712.602966 554.110962,710.176025 
	C563.732361,707.684998 568.992798,698.771729 566.681763,687.876709 
z"/>
<path fill="#000000" opacity="1.000000" stroke="none" 
	d="
M405.702209,656.232788 
	C405.938019,652.556702 408.350220,652.811523 410.493988,652.799316 
	C416.486359,652.765137 422.488220,653.003662 428.468689,652.737732 
	C432.715759,652.548889 433.970612,654.390930 433.966797,658.324829 
	C433.954254,671.306030 433.905914,684.295044 434.328186,697.266235 
	C434.669373,707.746704 440.030518,712.244324 450.434570,711.658020 
	C458.994781,711.175659 463.441528,705.331360 463.608337,693.773743 
	C463.776459,682.123779 463.812408,670.466370 463.576874,658.818909 
	C463.487091,654.379517 464.688660,652.445435 469.452393,652.730896 
	C475.423706,653.088623 481.432953,652.866394 487.424835,652.801575 
	C489.930420,652.774536 491.776978,653.446777 491.777466,656.301086 
	C491.780334,673.428223 493.317291,690.676086 490.700867,707.638245 
	C488.179291,723.985535 479.681580,731.012756 461.329865,733.951050 
	C450.914764,735.618591 440.433014,735.337463 430.132660,732.757385 
	C414.222137,728.771973 405.973297,718.044922 405.736084,700.655212 
	C405.536285,686.009277 405.686035,671.358521 405.702209,656.232788 
z"/>
<path fill="#000000" opacity="1.000000" stroke="none" 
	d="
M389.129395,666.064819 
	C388.884827,666.545837 388.801208,666.690186 388.728027,666.839539 
	C384.690399,675.083496 384.687347,675.093506 375.965668,672.335693 
	C371.603668,670.956543 367.163452,670.703186 362.649475,671.272217 
	C361.054504,671.473389 359.717529,672.043640 359.292175,673.754639 
	C358.841736,675.566467 359.469421,677.057861 360.964691,678.121765 
	C363.445465,679.886658 366.323730,680.780334 369.202454,681.591125 
	C374.026489,682.949768 378.614014,684.755310 382.978424,687.293274 
	C393.020569,693.132935 395.768738,702.144043 394.231842,712.887451 
	C392.877808,722.352478 387.215057,728.588379 378.259888,731.545654 
	C362.588562,736.720764 347.150604,736.301697 332.356506,728.433838 
	C325.978363,725.041870 325.884705,724.185974 329.436890,718.157410 
	C331.295776,715.002625 333.332001,711.941833 335.014435,708.696716 
	C336.594757,705.648621 338.246735,704.988098 341.218903,707.129883 
	C344.722900,709.654907 348.537109,711.713867 352.764923,712.931213 
	C354.558899,713.447754 356.326996,713.747986 358.166809,713.659607 
	C361.147461,713.516418 363.943481,712.886108 364.639191,709.421692 
	C365.312347,706.069885 362.906342,704.626160 360.364594,703.551331 
	C354.398712,701.028564 348.385498,698.734558 342.785767,695.305176 
	C325.120850,684.486694 330.393555,661.436462 345.421814,654.945862 
	C360.621368,648.381226 375.556793,649.844543 390.477417,655.658997 
	C391.354065,656.000610 392.055511,656.791931 392.843231,657.377563 
	C392.395996,660.612915 390.444946,663.004395 389.129395,666.064819 
z"/>
<path fill="#000000" opacity="1.000000" stroke="none" 
	d="
M623.378235,656.202759 
	C638.864807,648.185059 654.208862,649.636353 669.630066,655.140259 
	C672.756042,656.255920 673.975220,658.048645 671.841187,661.126709 
	C671.370972,661.804810 671.066956,662.597534 670.681885,663.335144 
	C668.758606,667.019043 667.678833,671.820740 664.682190,674.084290 
	C661.411438,676.554871 657.598022,671.870300 653.695312,671.512756 
	C650.048035,671.178589 646.419678,670.625122 642.751160,671.290161 
	C641.189270,671.573181 639.800903,672.068787 639.419189,673.809937 
	C639.024109,675.612122 639.595886,677.147034 641.156799,678.149475 
	C643.841675,679.873657 646.851685,680.845764 649.894836,681.723022 
	C655.029419,683.203064 659.965027,685.067932 664.452454,688.105286 
	C679.823181,698.508850 678.638489,722.444641 661.720642,730.037109 
	C645.042358,737.522217 628.026855,736.848877 611.780457,727.922852 
	C606.251221,724.884949 606.240784,723.920105 609.440735,718.661255 
	C611.604126,715.106140 613.771667,711.548157 615.768433,707.898987 
	C617.140137,705.392090 618.539246,705.196045 620.930237,706.742065 
	C624.129395,708.810669 627.565491,710.539001 630.998840,712.210083 
	C633.247314,713.304626 635.695129,713.843384 638.264221,713.684448 
	C641.418274,713.489258 644.504211,712.960449 645.166260,709.271179 
	C645.821106,705.622253 642.770813,704.449402 640.192444,703.369995 
	C634.517090,700.994263 628.700134,698.988037 623.501282,695.551453 
	C608.139282,685.397034 607.900452,666.948303 623.378235,656.202759 
z"/>
<path fill="#000000" opacity="1.000000" stroke="none" 
	d="
M735.432495,818.808960 
	C735.744873,815.124634 738.200806,816.781494 739.873840,816.816772 
	C742.362488,816.869324 744.860474,817.290466 746.729980,813.512207 
	C742.343384,814.952637 738.650208,815.584167 735.592529,812.378967 
	C733.235107,809.907837 732.363525,807.011353 732.729492,803.686890 
	C733.299866,798.504883 737.068542,795.428040 742.309326,795.661499 
	C744.110779,795.741699 745.758728,796.768494 747.695740,796.142334 
	C750.142029,795.351562 751.128479,796.944763 751.158752,799.049744 
	C751.227966,803.873718 751.566040,808.755676 750.977539,813.512939 
	C750.066467,820.876526 742.901672,823.334412 735.432495,818.808960 
M745.383728,801.271423 
	C743.346069,799.314575 741.143555,798.592712 738.886536,800.802673 
	C736.579224,803.061829 736.472717,805.833374 737.950378,808.504028 
	C739.007935,810.415649 741.006897,811.117554 743.092957,810.414185 
	C746.317078,809.327087 747.066101,806.744263 746.564575,803.660339 
	C746.462830,803.034302 746.081970,802.453674 745.383728,801.271423 
z"/>
<path fill="#000000" opacity="1.000000" stroke="none" 
	d="
M432.315826,814.856445 
	C430.477478,813.701599 428.754761,814.992798 426.951935,814.796387 
	C422.559113,814.317749 418.859894,809.669434 419.042480,804.758057 
	C419.241852,799.395264 422.680298,795.731506 427.664520,795.693970 
	C430.590942,795.671936 433.428436,796.927246 437.006195,795.867188 
	C437.587006,802.729553 437.820282,809.168091 436.940094,815.504883 
	C436.428741,819.186279 433.059509,820.822754 429.555298,821.133057 
	C426.532745,821.400757 423.210205,821.597900 421.758026,817.513367 
	C425.037231,814.959167 429.683167,819.178711 432.315826,814.856445 
M432.813110,802.653137 
	C431.698425,800.634521 430.081787,799.198303 427.692963,799.580994 
	C425.624664,799.912415 424.160950,801.367554 423.585541,803.421692 
	C422.971771,805.612915 423.321625,807.693115 425.043365,809.327271 
	C426.661224,810.862854 428.616486,811.137024 430.489655,810.018311 
	C433.010773,808.512512 433.997894,806.227844 432.813110,802.653137 
z"/>
<path fill="#000000" opacity="1.000000" stroke="none" 
	d="
M457.815399,813.325684 
	C453.539948,809.531433 452.701447,805.280151 454.885559,800.465576 
	C457.333923,795.068542 461.958496,795.160950 466.449402,796.100464 
	C467.620850,795.370544 467.555878,794.515381 467.662323,793.699463 
	C467.883759,792.002197 467.023834,789.327637 469.485718,789.181396 
	C472.240997,789.017700 472.022644,791.800293 472.055908,793.698975 
	C472.149139,799.022522 472.079742,804.349304 472.046082,809.674622 
	C472.028320,812.482361 471.572998,814.299927 467.750305,813.952148 
	C464.599274,813.665466 461.292114,815.702393 457.815399,813.325684 
M458.319855,806.154907 
	C459.161346,809.655884 461.195557,811.675903 464.791626,810.043762 
	C467.849365,808.655823 468.315002,805.759705 467.104950,802.785828 
	C466.311554,800.835938 464.750000,799.202271 462.537109,799.567993 
	C459.474243,800.074097 458.207153,802.371216 458.319855,806.154907 
z"/>
<path fill="#000000" opacity="1.000000" stroke="none" 
	d="
M819.306396,805.897827 
	C819.237671,814.536987 818.807922,814.911926 809.599243,814.851135 
	C805.028992,814.820984 801.135864,810.651245 800.953674,805.591248 
	C800.712402,798.891541 804.428284,796.049255 814.130859,795.511841 
	C815.752808,793.641602 813.255615,788.871216 817.135193,789.304382 
	C820.913818,789.726318 818.960815,793.931702 819.228088,796.469604 
	C819.538940,799.421875 819.304565,802.431519 819.306396,805.897827 
M807.216919,800.809937 
	C806.762573,801.486328 806.168640,802.108093 805.878723,802.848816 
	C804.806519,805.588806 805.218872,808.058411 807.698730,809.846741 
	C809.576111,811.200500 811.504028,810.813477 813.070740,809.284485 
	C815.241943,807.165588 815.346802,804.534790 813.946838,802.053894 
	C812.572998,799.619263 810.475708,798.573425 807.216919,800.809937 
z"/>
<path fill="#000000" opacity="1.000000" stroke="none" 
	d="
M236.711899,806.672363 
	C236.985703,797.423767 240.036758,794.999023 249.651428,796.007202 
	C250.900497,794.661560 250.449890,792.908508 250.665497,791.315369 
	C250.831604,790.088013 251.086319,788.923157 252.673813,789.032837 
	C254.178558,789.136780 254.421463,790.362122 254.618347,791.531311 
	C254.700195,792.017273 254.660522,792.525330 254.660675,793.023315 
	C254.662720,799.815674 254.662064,806.608032 254.662064,813.221191 
	C241.027145,815.807068 240.009399,815.093994 236.711899,806.672363 
M247.552231,810.050720 
	C248.234436,809.348267 249.080048,808.743408 249.568741,807.925354 
	C251.143509,805.289368 250.735260,802.812500 248.476822,800.767212 
	C247.015457,799.443848 245.328827,798.923096 243.518753,800.258118 
	C241.009048,802.109192 240.646927,804.687256 241.456543,807.388733 
	C242.234619,809.984985 244.189285,811.004639 247.552231,810.050720 
z"/>
<path fill="#000000" opacity="1.000000" stroke="none" 
	d="
M702.078613,808.689941 
	C701.867004,811.036377 702.366089,814.079956 699.830139,813.899475 
	C695.353027,813.580994 690.290466,816.891907 686.378845,812.062866 
	C683.315247,808.280579 682.937805,804.273254 685.100159,800.038940 
	C687.135376,796.053711 690.594116,795.193298 694.765442,795.846252 
	C702.102356,796.994690 702.110657,796.941528 702.078613,808.689941 
M688.717285,802.484497 
	C688.568726,803.120178 688.340271,803.749023 688.285339,804.392761 
	C688.034241,807.335632 689.012817,809.682251 692.042480,810.469788 
	C694.474121,811.101929 696.246094,809.737976 697.146790,807.591187 
	C698.277222,804.896912 697.711365,802.400024 695.358276,800.531555 
	C692.798401,798.498962 690.809387,799.602112 688.717285,802.484497 
z"/>
<path fill="#000000" opacity="1.000000" stroke="none" 
	d="
M269.096924,810.602905 
	C269.954041,810.519531 270.445496,810.444519 270.932190,810.345947 
	C272.545410,810.018921 274.720459,807.788574 275.624664,810.291870 
	C276.575989,812.925781 273.774017,813.726562 271.744110,814.369995 
	C266.800964,815.936768 261.711700,813.370544 260.093536,808.585693 
	C258.408051,803.601807 260.946289,797.510010 265.335297,796.005310 
	C269.851868,794.456970 274.715424,796.651306 276.469116,801.010376 
	C277.878662,804.513733 277.053802,806.400024 272.937042,806.423401 
	C270.339844,806.438171 267.657806,805.828491 264.861694,807.020020 
	C264.930573,809.621582 266.777039,810.163940 269.096924,810.602905 
M271.029144,801.067810 
	C268.548340,798.131287 266.841888,799.687195 265.216248,801.875977 
	C267.246674,802.264893 269.296082,803.620361 271.029144,801.067810 
z"/>
<path fill="#000000" opacity="1.000000" stroke="none" 
	d="
M515.014404,801.234436 
	C518.144958,796.164185 525.595581,793.876770 530.761597,796.096863 
	C532.031128,796.642334 532.240540,797.803650 532.271057,799.002380 
	C532.313354,800.665955 532.315552,802.330750 532.317932,803.995056 
	C532.333008,814.336060 531.461365,815.297913 522.559204,814.826660 
	C518.379333,814.605408 512.811035,809.976929 515.014404,801.234436 
M520.229431,809.246704 
	C522.492371,811.254211 524.896301,811.240479 526.701660,808.933655 
	C528.605408,806.501160 528.514282,803.637878 526.514282,801.194885 
	C525.165161,799.546997 523.278320,798.716980 521.273865,800.139099 
	C518.729065,801.944580 517.670349,804.358215 518.988892,807.432373 
	C519.181824,807.882080 519.489319,808.282593 520.229431,809.246704 
z"/>
<path fill="#000000" opacity="1.000000" stroke="none" 
	d="
M494.169861,812.370728 
	C489.650574,813.396851 485.280762,816.609802 480.757111,813.398315 
	C477.319214,810.957642 476.235718,807.390381 476.777679,803.313538 
	C477.440582,798.326538 481.008911,795.477478 486.065582,795.668640 
	C488.022400,795.742676 489.845306,796.502380 491.937042,796.132935 
	C494.332184,795.709778 494.331635,797.867920 494.338928,799.523438 
	C494.357147,803.664001 494.292023,807.804932 494.169861,812.370728 
M483.381531,809.965637 
	C486.366638,811.369629 488.407776,810.266541 489.854218,807.543640 
	C491.216797,804.978516 490.538025,802.733704 488.606323,800.857788 
	C487.235291,799.526367 485.563721,798.864075 483.713898,800.117004 
	C480.973206,801.973572 480.665710,804.626343 481.447723,807.526550 
	C481.646271,808.263000 482.322662,808.870667 483.381531,809.965637 
z"/>
<path fill="#000000" opacity="1.000000" stroke="none" 
	d="
M793.448364,797.251099 
	C797.753601,801.109436 798.416443,805.446411 796.027405,810.080872 
	C794.073242,813.871521 790.651245,815.326111 786.438782,814.637512 
	C782.394226,813.976257 779.873474,811.416809 778.949707,807.584045 
	C778.043823,803.825806 778.783508,800.210083 781.967163,797.680176 
	C785.437317,794.922668 789.263611,794.921509 793.448364,797.251099 
M789.720337,799.885803 
	C786.525879,798.682312 784.503113,800.292908 783.557678,803.018799 
	C782.657898,805.613220 782.950745,808.344727 785.650879,809.979492 
	C787.766663,811.260559 789.888733,810.794373 791.406799,808.941284 
	C793.418823,806.485107 793.356079,803.820923 791.431763,801.265259 
	C791.141113,800.879211 790.709473,800.599304 789.720337,799.885803 
z"/>
<path fill="#000000" opacity="1.000000" stroke="none" 
	d="
M769.826172,796.725037 
	C774.622314,799.877625 775.214783,804.224121 773.862366,808.780090 
	C772.792969,812.382629 769.802856,814.419495 766.045349,814.795410 
	C762.013611,815.198792 758.971680,813.269470 756.996460,809.871887 
	C754.847656,806.175598 755.420044,802.454529 757.890137,799.159790 
	C760.927490,795.108398 765.026917,794.864197 769.826172,796.725037 
M762.697815,800.302917 
	C760.092224,802.354492 759.572571,805.015442 760.939331,807.865723 
	C761.847534,809.759827 763.590698,810.881104 765.862549,810.558044 
	C768.341736,810.205627 769.591309,808.453613 770.178345,806.245117 
	C771.198669,802.406433 768.034302,799.537231 762.697815,800.302917 
z"/>
<path fill="#000000" opacity="1.000000" stroke="none" 
	d="
M577.506714,813.768066 
	C569.112305,816.059387 562.266907,810.651550 563.968323,803.399353 
	C564.891235,799.465515 567.088684,796.408081 571.441833,795.761230 
	C575.545288,795.151428 579.124207,796.253418 581.147461,800.105469 
	C583.125061,803.870728 583.058044,807.750610 580.421814,811.286133 
	C579.748901,812.188538 578.713989,812.821045 577.506714,813.768066 
M578.008057,806.755310 
	C578.988464,803.005371 577.219543,800.592773 573.868713,799.598938 
	C571.213013,798.811218 569.430969,800.765198 568.639038,803.042603 
	C567.708923,805.717285 568.139221,808.379700 570.901489,809.893127 
	C573.988831,811.584778 576.230164,810.359741 578.008057,806.755310 
z"/>
<path fill="#000000" opacity="1.000000" stroke="none" 
	d="
M650.152527,808.824585 
	C646.661560,814.241394 642.423462,815.975586 637.968933,814.131714 
	C634.104065,812.531921 631.447571,807.682861 632.192200,803.586914 
	C633.248413,797.776611 638.180298,794.519165 643.957642,795.816040 
	C649.036011,796.955994 651.634399,802.156982 650.152527,808.824585 
M638.848267,800.396423 
	C636.080200,802.824646 635.387085,805.615723 637.705872,808.666931 
	C639.296997,810.760681 641.539246,811.414368 643.837646,809.965515 
	C646.341980,808.386902 647.364502,805.892456 646.164795,803.106140 
	C644.940430,800.262817 642.846497,798.544800 638.848267,800.396423 
z"/>
<path fill="#000000" opacity="1.000000" stroke="none" 
	d="
M297.168365,799.154785 
	C298.726135,803.260498 298.102875,807.117981 298.135437,810.920044 
	C298.147247,812.294067 297.768951,813.782593 296.113190,813.872253 
	C294.079712,813.982300 293.811523,812.311951 293.750946,810.763672 
	C293.666443,808.604675 293.678223,806.441528 293.671448,804.280029 
	C293.664124,801.942444 293.200806,799.619812 290.406952,799.601257 
	C287.639130,799.582825 286.394928,801.615417 286.325287,804.293213 
	C286.273407,806.287598 286.341553,808.286438 286.244812,810.277832 
	C286.165009,811.921021 286.206360,813.966248 283.849121,813.868652 
	C281.913574,813.788452 281.782440,812.000793 281.748657,810.474792 
	C281.697144,808.147949 281.547821,805.803345 281.760406,803.495850 
	C281.989471,801.009338 280.394043,797.764343 283.486877,796.267334 
	C287.420929,794.363159 294.521515,795.924072 297.168365,799.154785 
z"/>
<path fill="#000000" opacity="1.000000" stroke="none" 
	d="
M403.146423,796.424561 
	C411.405914,794.639099 414.153748,796.720276 414.288422,804.547058 
	C414.322723,806.540161 414.329529,808.536743 414.249573,810.527710 
	C414.190125,812.008057 414.191803,813.854370 412.119385,813.792480 
	C410.205536,813.735229 409.966980,811.962708 409.883057,810.459778 
	C409.762817,808.305420 409.820953,806.141602 409.768951,803.982666 
	C409.717712,801.855164 409.261322,799.718079 406.725006,799.607544 
	C404.209412,799.497925 402.756378,801.337463 402.476685,803.668701 
	C402.161591,806.295044 402.312103,808.975220 402.207764,811.629944 
	C402.166473,812.680359 401.759766,813.683960 400.628845,813.886902 
	C399.183868,814.146118 398.382202,813.070740 398.230316,811.902588 
	C397.629761,807.283264 397.441071,802.615845 398.299072,798.026367 
	C398.784302,795.430847 400.951477,796.133301 403.146423,796.424561 
z"/>
<path fill="#000000" opacity="1.000000" stroke="none" 
	d="
M231.845398,808.262512 
	C230.867874,813.309692 227.689392,815.007446 223.401367,814.789062 
	C218.863525,814.557983 216.512344,811.736450 216.105286,807.374817 
	C215.858688,804.732605 215.889969,802.050415 215.998734,799.394470 
	C216.060516,797.885803 216.522766,796.133972 218.482788,796.308838 
	C220.115189,796.454529 220.249954,798.066895 220.278687,799.433594 
	C220.327713,801.765930 220.298676,804.100281 220.372223,806.431580 
	C220.442917,808.672485 221.349289,810.454712 223.817184,810.516296 
	C226.529465,810.583984 227.591019,808.790955 227.638092,806.285278 
	C227.681900,803.952881 227.661865,801.619202 227.712662,799.286987 
	C227.742599,797.912842 227.923920,796.359070 229.606308,796.252441 
	C231.605972,796.125732 231.991943,797.845154 232.033356,799.364502 
	C232.110321,802.188965 231.982925,805.018982 231.845398,808.262512 
z"/>
<path fill="#000000" opacity="1.000000" stroke="none" 
	d="
M380.866028,796.657959 
	C382.234558,797.722290 383.451569,798.620605 382.452881,800.132080 
	C381.612305,801.404236 380.436768,800.808777 379.346863,800.318359 
	C377.727966,799.589905 376.035187,798.442688 374.664307,800.861206 
	C375.599213,803.328857 378.092194,803.183105 379.931885,804.059509 
	C382.749786,805.402100 383.841339,807.645630 383.101807,810.582458 
	C382.262054,813.917114 379.381805,814.762695 376.516632,814.827087 
	C373.659393,814.891479 370.878174,814.041504 369.401337,811.175476 
	C369.186981,810.759460 369.445312,809.828979 369.809387,809.441345 
	C370.601532,808.597839 371.636261,808.838745 372.531738,809.391052 
	C374.567139,810.646362 376.606873,811.480957 378.878693,810.072205 
	C378.964569,807.432556 376.921387,807.431519 375.505829,806.934204 
	C372.173309,805.763184 369.019073,804.312378 369.891541,800.050354 
	C370.814728,795.540649 374.523071,795.463623 378.158875,795.757385 
	C378.958099,795.821899 379.730286,796.221008 380.866028,796.657959 
z"/>
<path fill="#000000" opacity="1.000000" stroke="none" 
	d="
M186.450958,795.926208 
	C189.178284,795.684082 191.530746,795.252258 193.652267,796.653564 
	C194.803528,797.414001 195.983246,798.316956 195.315506,799.857361 
	C194.563492,801.591919 193.206680,800.951904 191.948380,800.348083 
	C190.313309,799.563416 188.646225,798.559814 187.030090,800.524475 
	C187.406876,803.234802 189.823608,803.032593 191.540771,803.675110 
	C194.454941,804.765686 196.648590,806.388855 196.123505,809.847168 
	C195.615768,813.191284 193.047363,814.516602 190.060211,814.808594 
	C186.959183,815.111694 184.067520,814.343628 182.265701,811.468201 
	C181.990387,811.028809 182.043686,810.087952 182.341263,809.645508 
	C182.999603,808.666565 184.076050,808.768555 185.017761,809.257751 
	C187.053513,810.315552 189.035538,811.649658 191.350571,809.948975 
	C191.336105,807.113281 189.001175,807.234375 187.501694,806.598877 
	C181.420929,804.021545 180.842789,800.131226 186.450958,795.926208 
z"/>
<path fill="#000000" opacity="1.000000" stroke="none" 
	d="
M325.794128,814.881226 
	C323.377899,814.838013 321.437408,814.430054 319.782135,813.199463 
	C318.710602,812.402649 317.483704,811.437195 318.193390,809.941223 
	C318.983398,808.275940 320.374054,808.932190 321.592957,809.563538 
	C323.506317,810.554565 325.410980,811.572327 327.442810,809.809570 
	C327.038116,806.933105 324.589447,807.098572 322.918182,806.409912 
	C320.392914,805.369385 318.629639,803.971985 318.684418,800.984497 
	C318.729523,798.524170 319.896851,796.710022 322.172455,796.095764 
	C325.088196,795.308716 328.117279,795.103699 330.602661,797.447998 
	C331.371094,798.172913 331.761139,799.117981 331.122040,800.117737 
	C330.441101,801.182983 329.465881,801.005005 328.507019,800.515259 
	C326.736877,799.611145 324.975433,798.682495 323.128204,800.189758 
	C322.943604,802.813721 325.005310,802.908325 326.423553,803.352600 
	C329.466125,804.305603 332.209290,805.564087 332.137421,809.239075 
	C332.065613,812.911377 329.340851,814.204102 325.794128,814.881226 
z"/>
<path fill="#000000" opacity="1.000000" stroke="none" 
	d="
M619.402954,810.550293 
	C621.202271,810.758667 622.809021,811.307068 623.464600,809.159668 
	C622.498230,806.800110 620.021484,806.908813 618.166260,806.051331 
	C615.335571,804.742981 614.078918,802.586792 614.902588,799.619141 
	C615.815308,796.330872 618.495422,795.571350 621.566895,795.685303 
	C624.532043,795.795288 627.074585,796.402283 627.257324,800.122559 
	C624.448303,802.159668 621.536438,797.091125 618.962280,800.620972 
	C619.709473,803.533447 622.542969,803.083130 624.468323,804.057678 
	C626.855469,805.265930 628.688904,806.950623 628.060913,809.900757 
	C627.317261,813.394409 624.588501,814.694885 621.402710,814.791382 
	C618.514709,814.878906 615.736328,814.128418 614.242004,811.241089 
	C614.020691,810.813477 614.221069,809.792847 614.588318,809.498840 
	C616.375122,808.068726 617.574829,809.983459 619.402954,810.550293 
z"/>
<path fill="#000000" opacity="1.000000" stroke="none" 
	d="
M353.518250,809.213623 
	C357.518951,811.785034 359.366791,810.302979 359.689514,806.313904 
	C359.890381,803.831299 359.733765,801.321472 359.879547,798.832092 
	C359.962433,797.416260 360.593231,796.118103 362.287079,796.253845 
	C363.668640,796.364563 364.184906,797.547241 364.187561,798.783325 
	C364.194672,802.106384 364.451569,805.482605 363.959381,808.739563 
	C363.317902,812.984619 359.901001,815.228638 355.542969,814.713989 
	C351.407654,814.225586 348.587219,812.124329 348.714783,807.640686 
	C348.822632,803.851562 347.473724,799.809448 350.306671,795.552612 
	C354.309021,799.787964 350.849274,805.069336 353.518250,809.213623 
z"/>
<path fill="#000000" opacity="1.000000" stroke="none" 
	d="
M560.971558,791.180542 
	C559.906189,793.144409 557.001343,791.582275 556.569214,794.229858 
	C556.612610,796.015442 558.481262,795.665283 559.411438,796.456177 
	C560.470520,797.356812 560.952454,798.886047 559.737488,799.323059 
	C554.836853,801.085938 556.493713,805.101013 556.216736,808.468994 
	C556.149109,809.292297 556.217407,810.126831 556.148499,810.949951 
	C556.033691,812.320068 555.731079,813.804321 554.070923,813.836609 
	C552.067444,813.875671 551.847961,812.184814 551.776855,810.659851 
	C551.692200,808.842041 551.737549,807.018494 551.706848,805.197754 
	C551.690125,804.205627 552.035583,802.692810 551.531189,802.302795 
	C546.291687,798.252319 551.191589,795.112915 552.550781,791.909912 
	C554.211182,787.996826 557.897095,787.715454 560.971558,791.180542 
z"/>
<path fill="#000000" opacity="1.000000" stroke="none" 
	d="
M666.767029,800.161377 
	C662.365967,798.692627 659.924988,800.338196 659.269348,804.362122 
	C658.570557,808.651001 660.079224,809.464844 669.750427,810.487732 
	C670.618896,812.957764 668.918030,813.733398 667.109985,814.267334 
	C662.905945,815.508911 659.131958,814.865967 656.524780,811.051392 
	C653.802246,807.068176 653.837097,802.860291 656.653259,798.971191 
	C659.380859,795.204407 663.414368,795.181091 667.484192,796.048706 
	C668.772095,796.323242 670.092773,797.095703 670.012878,798.708862 
	C669.917969,800.624878 668.509583,800.564392 666.767029,800.161377 
z"/>
<path fill="#000000" opacity="1.000000" stroke="none" 
	d="
M208.219696,810.275269 
	C211.421158,812.172791 210.910080,813.684265 207.994781,814.196472 
	C204.460266,814.817444 202.963852,812.689331 202.667206,809.303467 
	C202.353882,805.727356 203.464355,802.186462 200.165222,798.746521 
	C198.125229,796.619507 202.648178,794.475464 204.035492,792.286316 
	C204.947296,790.847412 206.664825,792.514404 207.251862,793.996155 
	C207.961945,795.788696 210.507416,795.789490 210.954391,798.273499 
	C206.428406,801.088928 206.387314,805.375366 208.219696,810.275269 
z"/>
<path fill="#000000" opacity="1.000000" stroke="none" 
	d="
M305.759277,810.638062 
	C305.094910,806.353210 306.714691,802.384216 303.044891,798.709045 
	C301.076813,796.738098 305.917847,794.838013 306.888000,792.269287 
	C307.315704,791.136902 308.799072,792.858887 309.768433,793.774780 
	C312.429688,796.289368 315.103241,797.708740 310.672241,801.828308 
	C308.467804,803.877686 308.558807,809.462402 313.207764,811.869812 
	C309.979431,815.383057 308.452423,815.147461 305.759277,810.638062 
z"/>
<path fill="#000000" opacity="1.000000" stroke="none" 
	d="
M509.882965,798.035889 
	C504.683624,801.930359 504.899506,808.507874 509.525879,812.302246 
	C508.781525,814.690308 506.870453,814.511108 505.119995,814.044373 
	C502.641357,813.383545 502.071106,811.214172 501.872375,808.999268 
	C501.529205,805.174255 502.785767,800.955994 498.952454,798.360840 
	C499.107788,797.692261 499.078918,797.284668 499.268799,797.077393 
	C503.893951,792.029724 503.898041,792.033447 509.882965,798.035889 
z"/>
<path fill="#000000" opacity="1.000000" stroke="none" 
	d="
M707.743164,795.179565 
	C707.794006,793.547852 707.745300,792.373657 707.923767,791.235168 
	C708.115112,790.014771 708.742493,788.974976 710.191101,789.107788 
	C711.314087,789.210693 712.044800,790.100281 712.052673,791.122986 
	C712.106445,798.082336 712.097656,805.042969 712.001770,812.001709 
	C711.988098,812.993469 711.227173,813.929688 710.057739,813.877930 
	C708.351929,813.802551 707.883850,812.430298 707.856689,811.077881 
	C707.753601,805.937500 707.771179,800.794739 707.743164,795.179565 
z"/>
<path fill="#000000" opacity="1.000000" stroke="none" 
	d="
M587.645996,805.013733 
	C587.642029,804.037598 587.639099,803.539490 587.637512,803.041321 
	C587.618286,796.935547 591.193298,794.212463 597.083923,795.818542 
	C597.943604,796.052856 598.680481,796.410645 598.814514,797.342957 
	C598.952820,798.304688 598.345825,799.059204 597.483459,799.121094 
	C591.221130,799.570618 591.513855,804.176331 591.329163,808.566650 
	C591.255798,810.310852 591.880859,812.256287 589.818604,814.052673 
	C586.053162,811.975769 588.304199,808.278320 587.645996,805.013733 
z"/>
<path fill="#000000" opacity="1.000000" stroke="none" 
	d="
M677.064575,796.057251 
	C681.154541,801.339111 679.041382,807.145630 678.724792,812.698425 
	C678.622131,814.498108 675.775757,814.419189 675.555969,812.708801 
	C674.841431,807.150024 673.104675,801.386719 677.064575,796.057251 
z"/>
<path fill="#000000" opacity="1.000000" stroke="none" 
	d="
M387.954407,801.315857 
	C388.116882,799.880737 388.194672,798.879883 388.442688,797.923218 
	C388.703552,796.916870 389.264130,796.005737 390.483276,796.164246 
	C391.641083,796.314880 392.162262,797.263855 392.176239,798.309937 
	C392.236115,802.795471 392.243500,807.282471 392.199432,811.768188 
	C392.189301,812.801025 391.747742,813.809570 390.540253,813.907715 
	C389.065857,814.027588 388.393707,812.892029 388.311493,811.719849 
	C388.079498,808.410828 388.052429,805.087341 387.954407,801.315857 
z"/>
<path fill="#000000" opacity="1.000000" stroke="none" 
	d="
M726.328979,802.471313 
	C728.634399,804.085754 728.429993,805.623474 726.208435,806.043823 
	C723.734558,806.512024 720.978821,807.123413 718.699951,805.241760 
	C718.376404,804.974670 718.288818,803.813049 718.568176,803.521362 
	C720.685608,801.309814 723.367432,802.067688 726.328979,802.471313 
z"/>
</svg>