<svg xmlns="http://www.w3.org/2000/svg" xml:space="preserve" viewBox="0 0 992 992"><path d="M406.5176 194.3255c28.1596-6.8825 55.6301-6.2018 82.0646 5.0568 24.4712 10.4225 44.7924 26.715 61.4408 47.4923 5.2704 6.5776 5.0232 6.342 11.9638 2.035 19.9516-12.3812 41.4383-18.6027 65.1718-15.8688 33.8385 3.898 56.8277 23.5544 75.262 50.5096 14.6843 21.4717 16.5306 44.6894 11.1815 69.2287-.2768 1.2693-.5988 2.5287-.9742 4.105 16.6076.061 31.8295 4.5456 46.1316 12.0253 17.8313 9.3252 31.081 22.9925 39.0803 41.7535 10.9834 25.7595 10.7926 51.1707-3.6214 75.2207-18.0217 30.0698-44.7833 46.2822-80.3996 47.6688-20.0755.7816-38.3322-3.473-54.606-15.3672-2.474-1.8082-4.3936-1.313-6.7998.0032-20.5313 11.2318-41.9593 20.2934-64.823 25.5488-28.6724 6.5906-57.6648 10.0198-87.1387 7.581-40.1404-3.3214-76.5396-17.701-111.0686-37.6156-3.456-1.9932-7.1173-3.6316-10.565-5.6382-2.5569-1.4882-3.9747.0775-5.6378 1.5263-14.4856 12.6183-31.2752 20.6757-49.9136 24.9794-11.7177 2.7057-23.4777 2.3272-35.0955-.4538-42.2702-10.1187-71.94-34.6098-84.0659-77.095-10.5708-37.037-1.108-70.193 24.0719-98.733 20.7306-23.4973 47.708-34.8625 78.5593-37.5901 2.8765-.2543 4.2022-1.2123 4.5524-4.0213.6763-5.4224 1.3898-10.846 2.3071-16.2316 5.4882-32.2206 21.3007-58.9119 44.7615-81.075 13.4229-12.6805 29.9818-20.1777 48.1605-25.0448m-196.076 210.7609c-.6118 4.2833-1.1448 8.5796-1.8488 12.8478-3.1094 18.8527-.3173 37.0857 8.4874 53.719 14.7217 27.811 37.6203 46.4492 68.3356 54.1116 18.4099 4.5927 36.6662 1.3729 54.357-4.9761 11.541-4.142 21.6027-10.5765 30.4968-19.4954-9.6354-8.999-19.0227-17.6993-28.3346-26.4795-12.1227-11.4306-23.8564-22.8678-29.8694-39.295-6.5726-17.9566-.6987-32.6967 12.871-42.68 12.1054-8.906 34.0114-11.398 51.0751 4.051 11.2168-9.022 18.1478-11.5606 31.0383-10.8896 15.7475.8197 32.3621 12.126 34.818 27.2028 2.157 13.2416-1.5903 25.4583-8.8272 36.5361-7.9224 12.127-19.2016 21.1256-29.6083 30.9227-6.8485 6.4474-13.7536 12.8443-19.9277 20.0857 21.1684 14.9941 44.1336 25.109 67.9373 33.2708 24.3944 8.3645 49.472 12.2893 75.4682 11.0418 23.7452-1.1394 46.9245-4.8515 69.7375-11.2789 19.349-5.4514 37.4458-13.8648 54.8487-23.76 4.309-2.45 7.2257-2.1168 11.0775.884 18.005 14.027 38.6303 19.5686 60.9714 15.428 22.734-4.2133 42.5043-14.8301 56.8851-33.4201 14.3703-18.5765 22.9908-39.2004 16.4835-63.2277-3.896-14.3863-9.6353-28.1502-20.7407-38.7168-18.492-17.5945-40.2994-27.2292-66.1872-26.8617-7.3046.1037-8.5396-2.1304-5.6684-8.935.4518-1.071 1.108-2.0542 1.5934-3.113 3.6891-8.0504 4.752-16.8671 4.3062-25.3171-.5944-11.2689-4.1024-22.0788-9.8834-32.124-12.5864-21.8704-29.4456-39.1429-52.8976-48.9546-16.6743-6.976-34.2647-8.595-51.8104-3.6738-11.652 3.268-23.3725 6.9705-32.52 15.6993-7.0696 6.7461-10.5095 6.589-15.9211-1.3822-9.4895-13.9779-21.6594-25.2276-35.1867-35.0824-21.704-15.8118-45.8213-24.9225-72.907-24.707-10.306.082-20.5222 1.9272-30.4681 4.7391-17.863 5.0502-34.4743 13.083-47.6698 26.076-26.2247 25.822-41.3844 57.098-42.5647 94.4335-.115 3.6334-1.7677 5.5775-5.5305 5.5255-4.1622-.0574-8.2827.2004-12.419.8776-21.1722 3.4666-40.5015 11.612-56.7472 25.3922-15.8376 13.4341-27.1694 30.473-33.2503 51.5254m190.9996 67.8307c4.0375-3.7148 8.056-7.4505 12.1168-11.1397 7.4518-6.7701 13.96-14.3153 18.1314-23.5481 6.7246-14.8843 4.7089-26.7889-3.703-35.9058-12.7868-13.8587-35.8942-13.9319-48.3725 1.7268-2.1715 2.7249-4.1949 3.122-6.4695.3832-2.1492-2.5877-4.6943-4.6995-7.4206-6.6279-17.8796-12.6468-46.481-2.5648-48.8294 19.8335-1.304 12.4375 3.0113 22.7407 10.33 31.789 13.4279 16.6011 30.4999 29.5996 45.6314 44.5318 2.9635 2.9245 4.9892 2.201 7.4816-.2838 6.821-6.8001 13.7239-13.5184 21.1038-20.759zM567.6538 600.6432c8.1132-1.5242 15.936-.6467 23.7346-.8476 2.2322-.0576 3.3728 1.1687 3.5535 3.3192.0975 1.159.1132 2.3276.1136 3.4919.0124 39.299.024 78.598.0206 117.8969-.0007 7.8618-.0287 7.862-8.0146 7.859-3.9966-.0015-7.9967-.1117-11.9886.0227-4.6486.1566-9.4717.7919-8.4548-6.588-24.432 12.6128-41.1607 11.1634-54.4118-4.3326-12.755-14.9159-13.7076-38.8352-2.1631-54.7917 6.4898-8.9699 15.2633-14.2153 26.2073-15.706 10.6913-1.4564 20.3967 1.4883 29.2437 7.3225 1.825-1.7956 1.1427-3.7337 1.1507-5.4551.0706-15.3197.045-30.6399.0838-45.9597.005-1.9777-.3094-4.0083.9251-6.2315m-.972 87.2335c-3.5816-10.3664-12.6104-15.1928-22.7739-12.1741-9.11 2.7058-14.0756 12.8713-11.255 23.0406 2.4154 8.7083 12.0841 13.8598 21.458 11.4328 9.6215-2.491 14.8819-11.4043 12.5709-22.2993zM405.7022 656.2328c.2358-3.6761 2.648-3.4213 4.7918-3.4335 5.9924-.0342 11.9942.2044 17.9747-.0616 4.247-.1888 5.502 1.6532 5.4981 5.5871-.0125 12.9812-.0609 25.9702.3614 38.9414.3412 10.4805 5.7023 14.9781 16.1064 14.3918 8.5602-.4823 13.007-6.3266 13.1737-17.8843.1682-11.65.2041-23.3073-.0314-34.9548-.0898-4.4394 1.1118-6.3735 5.8755-6.088 5.9713.3577 11.9806.1355 17.9724.0707 2.5056-.027 4.3522.6452 4.3527 3.4995.0028 17.1271 1.5398 34.375-1.0766 51.3371-2.5216 16.3473-11.0193 23.3746-29.371 26.3129-10.4151 1.6675-20.8969 1.3864-31.1972-1.1937-15.9106-3.9854-24.1594-14.7125-24.3966-32.1022-.1998-14.646-.05-29.2967-.0339-44.4224zM389.1294 666.0648c-.2446.481-.3282.6254-.4014.7747-4.0376 8.244-4.0407 8.254-12.7623 5.4962-4.362-1.3792-8.8022-1.6325-13.3162-1.0635-1.595.2012-2.932.7714-3.3573 2.4824-.4505 1.8119.1772 3.3033 1.6725 4.3672 2.4808 1.7649 5.359 2.6585 8.2378 3.4693 4.824 1.3587 9.4115 3.1642 13.776 5.7022 10.042 5.8396 12.7902 14.8507 11.2533 25.5942-1.354 9.465-7.0167 15.7009-15.972 18.6582-15.6712 5.175-31.1092 4.756-45.9033-3.1119-6.3781-3.392-6.4718-4.2478-2.9196-10.2764 1.8589-3.1548 3.8951-6.2156 5.5775-9.4607 1.5804-3.048 3.2323-3.7086 6.2045-1.5668 3.504 2.525 7.3182 4.584 11.546 5.8013 1.794.5166 3.5621.8168 5.402.7284 2.9806-.1432 5.7766-.7735 6.4723-4.238.6731-3.3517-1.7329-4.7954-4.2746-5.8703-5.9659-2.5227-11.9791-4.8167-17.5788-8.2461-17.665-10.8185-12.3922-33.8687 2.636-40.3593 15.1996-6.5647 30.135-5.1014 45.0556.7131.8767.3416 1.5781 1.133 2.3658 1.7186-.4472 3.2353-2.3983 5.6268-3.7138 8.6872zM623.3782 656.2028c15.4866-8.0177 30.8307-6.5664 46.2519-1.0625 3.126 1.1156 4.3451 2.9083 2.211 5.9864-.4701.6781-.7741 1.4708-1.1592 2.2084-1.9233 3.684-3.003 8.4856-5.9997 10.7492-3.2708 2.4706-7.0842-2.214-10.9869-2.5715-3.6473-.3342-7.2756-.8877-10.9441-.2226-1.562.283-2.9503.7786-3.332 2.5197-.395 1.8022.1767 3.3371 1.7376 4.3396 2.6849 1.7242 5.6949 2.6963 8.738 3.5735 5.1346 1.48 10.0702 3.345 14.5577 6.3823 15.3707 10.4035 14.186 34.3393-2.7319 41.9318-16.6782 7.4851-33.6937 6.8118-49.9401-2.1142-5.5293-3.038-5.5397-4.0028-2.3398-9.2616 2.1634-3.5552 4.331-7.1131 6.3277-10.7623 1.3717-2.507 2.7708-2.703 5.1618-1.157 3.1992 2.0687 6.6353 3.797 10.0686 5.468 2.2485 1.0946 4.6963 1.6334 7.2654 1.4744 3.154-.1951 6.24-.724 6.902-4.4132.655-3.649-2.3954-4.8218-4.9738-5.9012-5.6753-2.3757-11.4923-4.382-16.6911-7.8185-15.362-10.1545-15.6008-28.6032-.123-39.3487z"/></svg>